<?xml version="1.0" encoding="UTF-8" standalone="no"?>
<!-- Generator: Adobe Illustrator 12.0.0, SVG Export Plug-In . SVG Version: 6.00 Build 51448)  -->

<svg
   xmlns:dc="http://purl.org/dc/elements/1.1/"
   xmlns:cc="http://creativecommons.org/ns#"
   xmlns:rdf="http://www.w3.org/1999/02/22-rdf-syntax-ns#"
   xmlns:svg="http://www.w3.org/2000/svg"
   xmlns="http://www.w3.org/2000/svg"
   xmlns:sodipodi="http://sodipodi.sourceforge.net/DTD/sodipodi-0.dtd"
   xmlns:inkscape="http://www.inkscape.org/namespaces/inkscape"
   sodipodi:docname="brain_neuron_mod.svg"
   inkscape:version="0.92.3 (2405546, 2018-03-11)"
   sodipodi:version="0.32"
   xml:space="preserve"
   enable-background="new 0 0 399.821 214.98"
   overflow="visible"
   viewBox="0 0 399.821 214.98"
   height="214.98"
   width="399.821"
   id="Layer_1"
   version="1.1"><metadata
   id="metadata78"><rdf:RDF><cc:Work
       rdf:about=""><dc:format>image/svg+xml</dc:format><dc:type
         rdf:resource="http://purl.org/dc/dcmitype/StillImage" /><dc:title></dc:title></cc:Work></rdf:RDF></metadata><defs
   id="defs76"><marker
     inkscape:isstock="true"
     style="overflow:visible;"
     id="marker7447"
     refX="0.0"
     refY="0.0"
     orient="auto"
     inkscape:stockid="Arrow2Lend"><path
       transform="scale(1.1) rotate(180) translate(1,0)"
       d="M 8.7185878,4.0337352 L -2.2072895,0.016013256 L 8.7185884,-4.0017078 C 6.9730900,-1.6296469 6.9831476,1.6157441 8.7185878,4.0337352 z "
       style="fill-rule:evenodd;stroke-width:0.625;stroke-linejoin:round;stroke:#ff0000;stroke-opacity:1;fill:#ff0000;fill-opacity:1"
       id="path7445" /></marker><marker
     inkscape:isstock="true"
     style="overflow:visible;"
     id="marker4220"
     refX="0.0"
     refY="0.0"
     orient="auto"
     inkscape:stockid="Arrow2Lend"><path
       transform="scale(1.1) rotate(180) translate(1,0)"
       d="M 8.7185878,4.0337352 L -2.2072895,0.016013256 L 8.7185884,-4.0017078 C 6.9730900,-1.6296469 6.9831476,1.6157441 8.7185878,4.0337352 z "
       style="fill-rule:evenodd;stroke-width:0.625;stroke-linejoin:round;stroke:#000000;stroke-opacity:1;fill:#000000;fill-opacity:1"
       id="path4218" /></marker><marker
     inkscape:isstock="true"
     style="overflow:visible;"
     id="marker2899"
     refX="0.0"
     refY="0.0"
     orient="auto"
     inkscape:stockid="Arrow2Lend"
     inkscape:collect="always"><path
       transform="scale(1.1) rotate(180) translate(1,0)"
       d="M 8.7185878,4.0337352 L -2.2072895,0.016013256 L 8.7185884,-4.0017078 C 6.9730900,-1.6296469 6.9831476,1.6157441 8.7185878,4.0337352 z "
       style="fill-rule:evenodd;stroke-width:0.625;stroke-linejoin:round;stroke:#ff0000;stroke-opacity:1;fill:#ff0000;fill-opacity:1"
       id="path2897" /></marker><marker
     inkscape:stockid="Arrow2Lend"
     orient="auto"
     refY="0.0"
     refX="0.0"
     id="marker2821"
     style="overflow:visible;"
     inkscape:isstock="true"
     inkscape:collect="always"><path
       id="path2819"
       style="fill-rule:evenodd;stroke-width:0.625;stroke-linejoin:round;stroke:#ff0000;stroke-opacity:1;fill:#ff0000;fill-opacity:1"
       d="M 8.7185878,4.0337352 L -2.2072895,0.016013256 L 8.7185884,-4.0017078 C 6.9730900,-1.6296469 6.9831476,1.6157441 8.7185878,4.0337352 z "
       transform="scale(1.1) rotate(180) translate(1,0)" /></marker><marker
     inkscape:isstock="true"
     style="overflow:visible;"
     id="marker2639"
     refX="0.0"
     refY="0.0"
     orient="auto"
     inkscape:stockid="Arrow2Lend"
     inkscape:collect="always"><path
       transform="scale(1.1) rotate(180) translate(1,0)"
       d="M 8.7185878,4.0337352 L -2.2072895,0.016013256 L 8.7185884,-4.0017078 C 6.9730900,-1.6296469 6.9831476,1.6157441 8.7185878,4.0337352 z "
       style="fill-rule:evenodd;stroke-width:0.625;stroke-linejoin:round;stroke:#ff0000;stroke-opacity:1;fill:#ff0000;fill-opacity:1"
       id="path2637" /></marker><marker
     inkscape:stockid="Arrow2Lend"
     orient="auto"
     refY="0.0"
     refX="0.0"
     id="marker2603"
     style="overflow:visible;"
     inkscape:isstock="true"><path
       id="path2601"
       style="fill-rule:evenodd;stroke-width:0.625;stroke-linejoin:round;stroke:#000000;stroke-opacity:1;fill:#000000;fill-opacity:1"
       d="M 8.7185878,4.0337352 L -2.2072895,0.016013256 L 8.7185884,-4.0017078 C 6.9730900,-1.6296469 6.9831476,1.6157441 8.7185878,4.0337352 z "
       transform="scale(1.1) rotate(180) translate(1,0)" /></marker><marker
     inkscape:isstock="true"
     style="overflow:visible;"
     id="marker2496"
     refX="0.0"
     refY="0.0"
     orient="auto"
     inkscape:stockid="Arrow2Lend"
     inkscape:collect="always"><path
       transform="scale(1.1) rotate(180) translate(1,0)"
       d="M 8.7185878,4.0337352 L -2.2072895,0.016013256 L 8.7185884,-4.0017078 C 6.9730900,-1.6296469 6.9831476,1.6157441 8.7185878,4.0337352 z "
       style="fill-rule:evenodd;stroke-width:0.625;stroke-linejoin:round;stroke:#ff0000;stroke-opacity:1;fill:#ff0000;fill-opacity:1"
       id="path2494" /></marker><marker
     inkscape:stockid="Arrow1Lend"
     orient="auto"
     refY="0.0"
     refX="0.0"
     id="marker1250"
     style="overflow:visible;"
     inkscape:isstock="true"><path
       id="path1248"
       d="M 0.0,0.0 L 5.0,-5.0 L -12.5,0.0 L 5.0,5.0 L 0.0,0.0 z "
       style="fill-rule:evenodd;stroke:#000000;stroke-width:1pt;stroke-opacity:1;fill:#000000;fill-opacity:1"
       transform="scale(0.8) rotate(180) translate(12.5,0)" /></marker><marker
     inkscape:stockid="Arrow1Lend"
     orient="auto"
     refY="0.0"
     refX="0.0"
     id="marker1216"
     style="overflow:visible;"
     inkscape:isstock="true"><path
       id="path1214"
       d="M 0.0,0.0 L 5.0,-5.0 L -12.5,0.0 L 5.0,5.0 L 0.0,0.0 z "
       style="fill-rule:evenodd;stroke:#000000;stroke-width:1pt;stroke-opacity:1;fill:#000000;fill-opacity:1"
       transform="scale(0.8) rotate(180) translate(12.5,0)" /></marker><marker
     inkscape:stockid="Arrow1Send"
     orient="auto"
     refY="0.0"
     refX="0.0"
     id="Arrow1Send"
     style="overflow:visible;"
     inkscape:isstock="true"><path
       id="path873"
       d="M 0.0,0.0 L 5.0,-5.0 L -12.5,0.0 L 5.0,5.0 L 0.0,0.0 z "
       style="fill-rule:evenodd;stroke:#000000;stroke-width:1pt;stroke-opacity:1;fill:#000000;fill-opacity:1"
       transform="scale(0.2) rotate(180) translate(6,0)" /></marker><marker
     inkscape:stockid="Arrow1Lend"
     orient="auto"
     refY="0.0"
     refX="0.0"
     id="Arrow1Lend"
     style="overflow:visible;"
     inkscape:isstock="true"><path
       id="path861"
       d="M 0.0,0.0 L 5.0,-5.0 L -12.5,0.0 L 5.0,5.0 L 0.0,0.0 z "
       style="fill-rule:evenodd;stroke:#000000;stroke-width:1pt;stroke-opacity:1;fill:#000000;fill-opacity:1"
       transform="scale(0.8) rotate(180) translate(12.5,0)" /></marker><marker
     inkscape:stockid="Arrow2Lend"
     orient="auto"
     refY="0"
     refX="0"
     id="marker4264-0"
     style="overflow:visible"
     inkscape:isstock="true"><path
       inkscape:connector-curvature="0"
       id="path4262-5"
       style="fill:#000000;fill-opacity:1;fill-rule:evenodd;stroke:#000000;stroke-width:0.625;stroke-linejoin:round;stroke-opacity:1"
       d="M 8.7185878,4.0337352 -2.2072895,0.01601326 8.7185884,-4.0017078 c -1.7454984,2.3720609 -1.7354408,5.6174519 -6e-7,8.035443 z"
       transform="matrix(-1.1,0,0,-1.1,-1.1,0)" /></marker></defs><sodipodi:namedview
   inkscape:window-maximized="1"
   showgrid="false"
   inkscape:current-layer="Layer_1"
   inkscape:window-y="-8"
   inkscape:window-x="-8"
   inkscape:cy="137.56979"
   inkscape:cx="181.1254"
   inkscape:zoom="2.5918698"
   id="base"
   pagecolor="#ffffff"
   bordercolor="#666666"
   borderopacity="1.0"
   objecttolerance="10.0"
   gridtolerance="10.0"
   guidetolerance="10.0"
   inkscape:pageopacity="0.0"
   inkscape:pageshadow="2"
   inkscape:window-width="1920"
   inkscape:window-height="1017"
   inkscape:snap-global="false" />
<path
   d="M126.833,132.089c3.606-1.491,1-6.333,1-6.333s-26.333-5-21-24s5.333-19,5.333-19  s6.333-4.668,11.667-8.334s3.667-4.999-0.667-3.666c-0.667-1.334,2.333-4.667,2.667-5.333c0.333-0.668,6-13.001-5.333,3.666  c0,1-9.667,12-4-7.666c0,0,7.333-35.334-1-9.668c0,0-2,6.334-4,2c0,0,4,13.335-8.333,46.001c-3-2.667-5-5.334-5-5.334  c-1-1.666-1.667-5.666,3-14.333s7.333-14,7.333-14s4.333-8.334-1-2.334c0,0,0.333-18.999-3,4.334c0,0-2.666,4.001-4.333,5.667  c0,0,4.667-11-1-8.333c0,0-3-7-2.667,1c0.333,7.999,2,9.667,1,14.333s-2.667,2.666-3-1.334s-10,0.334,5.333,24.667  c0,0,5.333,25.333-14.333,7.333c0,0-24.667-19.667,7-43c-4,3-5.667,6.335-5,2.334s0-3.667,0-3.667s-3.667,7.001-6,8.667  s-11.667,4.667,9-18.667c-4,3-11.333,8.667-4-7.667c-7,11-11.333,23.667-15.333,12.667c0,0,4.333,46.332-6,16.333  c0,0-3.667-6,5-35.667c-3,6.667-5.667,16-5-3.333c0,0-3,1-2.333,22.333c0,0-9.333,21.334-7.333-7c0,0,3-12.666,3.333-15  s-1.667,0.667-2.333,2s-0.667-5-0.667-5s-2,3-2.333,7s-3.333-3-4.333-4.667s6.666,11,1.333,21.666c0,0-7.666-12.666-8.333-9  c-0.667,3.667,16,23.668,16.333,25.001s10,11-2,9.333c-4-0.333-6.333-2.667-8.333-6s-6.333-10-6.333-10l-9.667-11L31.5,43.755  l-1.333,3.667l-2.333-2.333l2,4.667l0.333,6.333l-2.333,1c0,0,28,28.334,5.333,17.667c0,0-8.334,2.334,10.333,7  c0,0,1.333,7.666,17.333,8.666c0,0,12,13.001,15,25.334c0,0,3.333,26.667-12,6c0,0,3,7.333,1,7.333s-11.667-5.667-13-5.667  s-5.333,2-5.333,2s27,6.666,1.667,7c0,0-18,6.333-11-36c0,0-2.333,12.334-4.333,0.667c0,0-5.333,26.334,0,36.667  c0,0,5,6.332-2.333,6.666c0,0,9-1.334,18-4c0,0-6.667,13.334-10,13.334c0,0,3,0.666-0.333,2.666c0,0,1.333,2.666,5-2  s9-15.999,22-15.666c4.333,1.333,20.333,14.666-4,19.333c-7.333,3-35,13.001-32.667,14.667s16.333-8.334,14-3.334  s-10,19.334-10,19.334s9.333-21.333,7.333-5c1,1.333,25.333-45.333,8,0c0.333,1,4.333-6.001,5,3.333c0,0,0.333-35.332,25.333-24.666  c0.667,9-4.667,21.332-18.667,29.666c14.333-8.333,16.667-12,10,2c3.333-3.333,5-2.999,6,1.334c1.333-15,4-19.666,6.667-22  c2.667,7,3.667,9.999,4,11.666s-1.667-23.667-2-25s13-0.666,13-0.666s10,19.334,5.667,28c2.333-7.334-1.667-22.001,16,3.666  c0,0-12-13.333,7.333-8.333c-6.667-5.333-19-12.666-22.333-18.333s-4-13.333,6.333-6s16.667,10.332,17.667,9.666s-19.667-10,3.333-6  C116.5,151.756,92.167,146.422,126.833,132.089z"
   id="path3"
   stroke="#000000"
   fill="#AFA3CF" />
<path
   fill="#5B9974"
   stroke="#000000"
   d="M85.125,136.589c-0.125-4.5,1.375-5.875,4.125-5.5s5.5,1.625,6.625,2.875s2.75,3.5,3,4.375  s0.375,1.75,0.5,2.625s0.5,1.75,0.125,2.5s-0.875,2.375-1.875,2.5s-1.625,0.375-2.75-0.25s-2.875-1.75-3.625-2.375  s-3.75-3.625-4.375-4.5S85.125,136.589,85.125,136.589z"
   id="path5" />
<path
   fill="#F9D566"
   stroke="#000000"
   d="M127.5,133.339c2.25-4.5,1.625-6,1.125-7.375s17.625-2,30,5c0,0,11.75,4,1.25,11.5  C159.875,142.464,140.375,145.339,127.5,133.339z"
   id="path7" />
<path
   fill="#F9D566"
   stroke="#000000"
   d="M168.375,145.839c0,0-3.625-1.75-2.5-5s2.125-3.25,3.125-3.625s6.75-0.25,7.25-0.25  s19.75,2,22.375,4.25s3.5,5,3.5,6.125s-0.25,4.75-3.75,4.75s-18.375-0.25-19-0.875S170.875,148.464,168.375,145.839z"
   id="path9" />
<path
   fill="#F9D566"
   stroke="#000000"
   d="M214.375,155.089c-6.625-2.125-9.5-4.625-9.25-7.25s0.75-3.625,1.875-4.25  s3.875-1.375,4.625-1.625s22.375-3.375,24.5-2.875s4.75,3,5,4.5s2.625,5-2.75,7.25s-9.375,3.75-13,4  S214.375,155.089,214.375,155.089z"
   id="path11" />
<path
   fill="#F9D566"
   stroke="#000000"
   d="M252.125,145.464c-6.009,0.376-7.875,1.125-7.75-3.375s-0.375-6.125,3.25-7.875  s13.875-8.5,15.5-9.25s6.875-2.375,9.25,0.75s2.125,4.5-0.375,7.25S256.125,145.214,252.125,145.464z"
   id="path13" />
<path
   fill="#F9D566"
   stroke="#000000"
   d="M274,122.839c-2.44-4.532-3.375-7-1.125-10.25s13.125-18.75,13.5-19.25  s4.625-2.375,8.375,0.875s4.5,5.5,1,10.25s-11.625,17.5-14.5,19S275.75,126.089,274,122.839z"
   id="path15" />
<ellipse
   fill="#E68B60"
   stroke="#B76328"
   cx="140"
   cy="130.964"
   rx="3.375"
   ry="2.125"
   id="ellipse17" />
<ellipse
   fill="#E68B60"
   stroke="#B76328"
   cx="181.875"
   cy="144.839"
   rx="3.375"
   ry="2.125"
   id="ellipse19" />
<ellipse
   fill="#E68B60"
   stroke="#B76328"
   cx="224.125"
   cy="147.839"
   rx="3.375"
   ry="2.125"
   id="ellipse21" />
<ellipse
   transform="matrix(0.912 -0.4103 0.4103 0.912 -32.3066 117.8699)"
   fill="#E68B60"
   stroke="#B76328"
   cx="258.5"
   cy="134.214"
   rx="3.375"
   ry="2.125"
   id="ellipse23" />
<ellipse
   transform="matrix(0.5422 -0.8402 0.8402 0.5422 39.543 287.5071)"
   fill="#E68B60"
   stroke="#B76328"
   cx="283.625"
   cy="107.464"
   rx="3.375"
   ry="2.125"
   id="ellipse25" />
<path
   fill="#AFA3CF"
   stroke="#000000"
   d="M164.25,137.089c2.25,0.5,3.75,0.5,3.75,0.5l-2.125,3.25l-4.125-0.125L164.25,137.089z"
   id="path27" />
<path
   fill="#AFA3CF"
   stroke="#000000"
   d="M201.75,145.214l4.125-0.25L205,149.089h-3.125  C201.875,149.089,202.125,145.714,201.75,145.214z"
   id="path29" />
<path
   fill="#AFA3CF"
   stroke="#000000"
   d="M240.25,141.589c0,0,3.375-2.5,3.625-3.125s0.375,5,0.5,5.375s-2.25,0.875-2.25,0.875  L240.25,141.589z"
   id="path31" />
<path
   fill="#AFA3CF"
   stroke="#000000"
   d="M269.625,123.714l2.75-3.875l2.875,4.375l-2,1.875  C273.25,126.089,271.5,123.964,269.625,123.714z"
   id="path33" />
<path
   d="M291.167,92.256c0.041-0.09,0.082-0.18,0.123-0.27c3.275-7.251,5.894-14.772,7.21-18.064  c1.333-3.333,1.833-11.166,1.333-12s-2-6.5-5.833-5.333s-2.501,0-3.667,1.833s-3.999,2-4.166,0.333s0.5-2.167,3.333-2.667  s1.333-2.5-0.667-4.333s-7.334-1.833-3.5-4.333s4-2.834,5.5-1.667s-3.167,2,1,4.5s7.166,4,8.5,4.167s2.5,0.333,2.5-1.167  s1.667-3,2.667-3.833s1.5-4.167,1.5-4.167s-3.5-3.166-0.5-2.833s4.5,0.5,3,2.333c0.333,0.5-0.166,2,0.167,2.5S315,47.089,315,47.089  s4.5-0.333,3,2.5c-0.333,0.833-1.5,2-3.5,0.667c-1.833,0.333-3.667-0.333-4.167-0.167s-7.167,3.167-6.5,18.167  c4.5-2.5,17.668-10.334,19.334-11s9.666-9.833,9.833-10.667s-1.666-3.333-1.333-4s3.499-2,4.166-2.167s1.501-2,2.334,0.167  s0.667,2.167,0,2.667s-1.166,0.833-1,1.833s0.333,1.667,0.833,1.5s0.833,0.833,0.833,0.833l-6.666,5.333c0,0,6.167-1.167,7-2  s2.5-1.667,2.833-0.5s0.667,0.834,0,1.667s-1.833,1.666-4,2.333s-3.667,1.333-5,1.5s-3.833,1-3.833,1s-1.333,0.333-4,2.5  s-4.5,3.167-6.167,4.167s-2.833,1.333-4.5,2.5s-4.5,2.5-4.5,2.5s-2.501,0.834-3.167,1.667s-1.832,2.167-2.166,2.667  s-1,2.166-1,2.166l-0.667,3l-2.167,2.5l-0.5,2.334c0,0,4.166,0.5,5,0.5s1.5-0.001,2.667-0.834s1-0.334,2-1.5  s2.167-2.333,2.667-3.333s1.666-2.167,2.666-3s2.333-2.001,3-2.167s3-0.833,3.5-1.333s1.001,0.001,1.334-0.833s1.334-2.5,1.5-3.333  s0.166-1.167,0.833-1.167s1.167-0.333,1.5,0.5s1.001,0.667,0.667,1.833S327,69.922,327,69.922l0.167,0.334c0,0,1.5,0.499,2-0.334  s1.333-1.333,1.333-1.333l1-1.333l0.833-1.5l0.834-0.667l1.5-0.333c0,0,0.5,0,0.833,1.167s0.5,1.667,0.5,2.167s-2,2-2,2  l-0.667,0.667c0,0-1.5,0.332-2,0.666s-2.166,0.834-2.166,0.834l-2.334,0.166l-1.666,0.834l-0.667,0.5v1c0,0,0.667,0.834,1.167,1  s3.5,0,3.5,0l0.666-0.167l-1,1.333l-3.333,0.667c0,0-0.834,0.166-1.667,0.333s-3,0.5-3,0.5s-1.834,0.834-2.5,1.334s-2,0.167-0.833,1  s0.333,1.334,4,1s1.334-0.667,4.667,0.333s4,0.667,6,1.667s-1.334,0.332,4.333,2.166s5.499,1.666,9.333,3s3.333-0.5,4.5,2  s6.667,2.833,1.167,2.5s-4.499-0.333-7.333-1.333s-2.5-1.167-6.667-2.667s-6.667-3.667-2.167,1.5s5.5,5.667,6.167,10.167  s1,14.167,5,14.5s7.501,1.333,5.167,3.333s-6.168,0.668-7.334-1.166s-3.666-3.5-4.166-6s0.334-4.501-0.5-4.834  s-0.834-0.332-1.667,0.334s-0.333-0.834-1.5,1.833s-1.501,3.167-2.167,3.5s-4.166,0.834-4.166-0.833s0.5-2.168,1.333-2.334  s-0.667,1.333,2-1s3.834-4.166,4.167-5.166s2.166-5.5-5.667-11.167s-13.666-9.166-20.833-5.833c2,3,5.667,5.333,5.5,11.333  c0,0.667,2.832,3-0.334,4c-0.5,0.167-3.5,0.333-1.833-4c0-2.167,0.501-3.499-3.833-7.333c0.166,3.666-0.168,7.332,0.166,8.666  s3.168,4.501-0.666,5.834c-2.167-0.5-3.834-1.833-1.334-6c0-3.834-3.999-20.333-14.166-5  C292.333,93.089,291.167,92.256,291.167,92.256z"
   id="path35"
   stroke="#000000"
   fill="#AFA3CF" />
<path
   fill="#AFA3CF"
   stroke="#000000"
   d="M367.333,131.756"
   id="path37" />
<line
   stroke="#000000"
   x1="142.5"
   y1="78.089"
   x2="111.5"
   y2="118.589"
   id="line39" />
<line
   stroke="#000000"
   x1="74"
   y1="18.589"
   x2="75.5"
   y2="65.089"
   id="line41" />
<line
   fill="none"
   stroke="#000000"
   x1="89.5"
   y1="142.089"
   x2="43.5"
   y2="200.089"
   id="line43" />
<line
   fill="none"
   stroke="#000000"
   x1="127.5"
   y1="133.339"
   x2="143"
   y2="162.089"
   id="line45" />



<line
   x1="315.35822"
   y1="161.63329"
   x2="314.02521"
   y2="106.30029"
   id="line53"
   style="fill:none;stroke:#000000" />
<text
   transform="translate(42,12.0889)"
   font-size="14"
   id="text55"
   style="font-size:14px;line-height:0%;font-family:Verdana">Dendrite</text>




<text
   font-size="14"
   id="text57"
   transform="translate(138,76.5889)"
   style="font-size:14px;line-height:0%;font-family:Verdana">Cell body</text>




<text
   transform="translate(224.8135,49.5889)"
   id="text59"
   style="line-height:0%" />




<text
   font-size="14"
   id="text65"
   style="font-size:14px;line-height:0%;font-family:Verdana"
   x="272.32761"
   y="175.90196">Axon Terminal</text>




<text
   transform="translate(308,171.5889)"
   font-size="14"
   id="text67"
   style="font-size:14px;line-height:0%;font-family:Verdana" />




<text
   transform="translate(219.5,198.0889)"
   font-size="14"
   id="text69"
   style="font-size:14px;line-height:0%;font-family:Verdana" />




<text
   transform="translate(140,176.0889)"
   font-size="14"
   id="text71"
   style="font-size:14px;line-height:0%;font-family:Verdana">Axon</text>




<text
   transform="translate(0,212.0889)"
   font-size="14"
   id="text73"
   style="font-size:14px;line-height:0%;font-family:Verdana">Nucleus</text>




<flowRoot
   xml:space="preserve"
   id="flowRoot42"
   style="fill:black;stroke:none;stroke-opacity:1;stroke-width:1px;stroke-linejoin:miter;stroke-linecap:butt;fill-opacity:1;font-family:sans-serif;font-style:normal;font-weight:normal;font-size:40px;line-height:125%;letter-spacing:0px;word-spacing:0px"><flowRegion
     id="flowRegion44"><rect
       id="rect46"
       width="18.005938"
       height="45.287663"
       x="245.53552"
       y="63.839241" /></flowRegion><flowPara
     id="flowPara48" /></flowRoot><path
   style="color:#000000;font-style:normal;font-variant:normal;font-weight:normal;font-stretch:normal;font-size:medium;line-height:normal;font-family:sans-serif;font-variant-ligatures:normal;font-variant-position:normal;font-variant-caps:normal;font-variant-numeric:normal;font-variant-alternates:normal;font-feature-settings:normal;text-indent:0;text-align:start;text-decoration:none;text-decoration-line:none;text-decoration-style:solid;text-decoration-color:#000000;letter-spacing:normal;word-spacing:normal;text-transform:none;writing-mode:lr-tb;direction:ltr;text-orientation:mixed;dominant-baseline:auto;baseline-shift:baseline;text-anchor:start;white-space:normal;shape-padding:0;clip-rule:nonzero;display:inline;overflow:visible;visibility:visible;opacity:1;isolation:auto;mix-blend-mode:normal;color-interpolation:sRGB;color-interpolation-filters:linearRGB;solid-color:#000000;solid-opacity:1;vector-effect:none;fill:#ff0000;fill-opacity:1;fill-rule:evenodd;stroke:none;stroke-width:0.6954729;stroke-linecap:butt;stroke-linejoin:miter;stroke-miterlimit:4;stroke-dasharray:none;stroke-dashoffset:0;stroke-opacity:1;color-rendering:auto;image-rendering:auto;shape-rendering:auto;text-rendering:auto;enable-background:accumulate"
   d="m 171.38445,128.98638 -0.16194,0.68164 22.31981,5.42774 c -0.28369,0.92444 -0.80438,1.77354 -1.56743,2.42578 l 7.7542,-0.92188 0.0578,0.0137 0.006,-0.0215 0.96975,-0.11523 -7.36281,-4.97071 c 0.38074,0.94649 0.46472,1.95206 0.30461,2.90821 z"
   id="path856"
   inkscape:connector-curvature="0" /><path
   style="color:#000000;font-style:normal;font-variant:normal;font-weight:normal;font-stretch:normal;font-size:medium;line-height:normal;font-family:sans-serif;font-variant-ligatures:normal;font-variant-position:normal;font-variant-caps:normal;font-variant-numeric:normal;font-variant-alternates:normal;font-feature-settings:normal;text-indent:0;text-align:start;text-decoration:none;text-decoration-line:none;text-decoration-style:solid;text-decoration-color:#000000;letter-spacing:normal;word-spacing:normal;text-transform:none;writing-mode:lr-tb;direction:ltr;text-orientation:mixed;dominant-baseline:auto;baseline-shift:baseline;text-anchor:start;white-space:normal;shape-padding:0;clip-rule:nonzero;display:inline;overflow:visible;visibility:visible;opacity:1;isolation:auto;mix-blend-mode:normal;color-interpolation:sRGB;color-interpolation-filters:linearRGB;solid-color:#000000;solid-opacity:1;vector-effect:none;fill:#ff0000;fill-opacity:1;fill-rule:evenodd;stroke:none;stroke-width:0.6954729;stroke-linecap:butt;stroke-linejoin:miter;stroke-miterlimit:4;stroke-dasharray:none;stroke-dashoffset:0;stroke-opacity:1;color-rendering:auto;image-rendering:auto;shape-rendering:auto;text-rendering:auto;enable-background:accumulate"
   d="m 208.50259,137.49746 0.17995,0.67711 22.23068,-5.78196 c 0.1876,0.94862 0.13077,1.94303 -0.23272,2.87873 l 6.3945,-4.48194 0.0574,-0.0153 -0.005,-0.0218 0.79973,-0.56046 -8.83851,-0.89416 c 0.78335,0.65358 1.33323,1.49965 1.64471,2.41771 z"
   id="path856-6"
   inkscape:connector-curvature="0"
   inkscape:transform-center-x="0.77164371"
   inkscape:transform-center-y="-3.0865749" /><path
   style="color:#000000;font-style:normal;font-variant:normal;font-weight:normal;font-stretch:normal;font-size:medium;line-height:normal;font-family:sans-serif;font-variant-ligatures:normal;font-variant-position:normal;font-variant-caps:normal;font-variant-numeric:normal;font-variant-alternates:normal;font-feature-settings:normal;text-indent:0;text-align:start;text-decoration:none;text-decoration-line:none;text-decoration-style:solid;text-decoration-color:#000000;letter-spacing:normal;word-spacing:normal;text-transform:none;writing-mode:lr-tb;direction:ltr;text-orientation:mixed;dominant-baseline:auto;baseline-shift:baseline;text-anchor:start;white-space:normal;shape-padding:0;clip-rule:nonzero;display:inline;overflow:visible;visibility:visible;opacity:1;isolation:auto;mix-blend-mode:normal;color-interpolation:sRGB;color-interpolation-filters:linearRGB;solid-color:#000000;solid-opacity:1;vector-effect:none;fill:#ff0000;fill-opacity:1;fill-rule:evenodd;stroke:none;stroke-width:0.6954729;stroke-linecap:butt;stroke-linejoin:miter;stroke-miterlimit:4;stroke-dasharray:none;stroke-dashoffset:0;stroke-opacity:1;color-rendering:auto;image-rendering:auto;shape-rendering:auto;text-rendering:auto;enable-background:accumulate"
   d="m 242.9107,130.08901 0.45569,0.53217 17.52668,-14.84755 c 0.58029,0.77352 0.96016,1.69427 1.03823,2.69505 l 3.81946,-6.81095 0.0451,-0.0387 -0.014,-0.0175 0.47771,-0.85175 -8.35245,3.02578 c 0.98925,0.24938 1.85155,0.77344 2.53022,1.46573 z"
   id="path856-6-5"
   inkscape:connector-curvature="0"
   inkscape:transform-center-x="1.9863887"
   inkscape:transform-center-y="-2.0830999" /><path
   style="color:#000000;font-style:normal;font-variant:normal;font-weight:normal;font-stretch:normal;font-size:medium;line-height:normal;font-family:sans-serif;font-variant-ligatures:normal;font-variant-position:normal;font-variant-caps:normal;font-variant-numeric:normal;font-variant-alternates:normal;font-feature-settings:normal;text-indent:0;text-align:start;text-decoration:none;text-decoration-line:none;text-decoration-style:solid;text-decoration-color:#000000;letter-spacing:normal;word-spacing:normal;text-transform:none;writing-mode:lr-tb;direction:ltr;text-orientation:mixed;dominant-baseline:auto;baseline-shift:baseline;text-anchor:start;white-space:normal;shape-padding:0;clip-rule:nonzero;display:inline;overflow:visible;visibility:visible;opacity:1;isolation:auto;mix-blend-mode:normal;color-interpolation:sRGB;color-interpolation-filters:linearRGB;solid-color:#000000;solid-opacity:1;vector-effect:none;fill:#ff0000;fill-opacity:1;fill-rule:evenodd;stroke:none;stroke-width:0.6954729;stroke-linecap:butt;stroke-linejoin:miter;stroke-miterlimit:4;stroke-dasharray:none;stroke-dashoffset:0;stroke-opacity:1;color-rendering:auto;image-rendering:auto;shape-rendering:auto;text-rendering:auto;enable-background:accumulate"
   d="m 271.52812,105.62088 0.5583,0.42327 13.97413,-18.23068 c 0.73131,0.632657 1.29804,1.451744 1.58684,2.413122 l 2.28607,-7.466674 0.0358,-0.04739 -0.0174,-0.01413 0.28595,-0.933766 -7.51945,4.730397 c 1.01965,0.03363 1.97357,0.362629 2.78377,0.895017 z"
   id="path856-6-5-4"
   inkscape:connector-curvature="0"
   inkscape:transform-center-x="2.4399587"
   inkscape:transform-center-y="-1.6621714" /><path
   style="color:#000000;font-style:normal;font-variant:normal;font-weight:normal;font-stretch:normal;font-size:medium;line-height:normal;font-family:sans-serif;font-variant-ligatures:normal;font-variant-position:normal;font-variant-caps:normal;font-variant-numeric:normal;font-variant-alternates:normal;font-feature-settings:normal;text-indent:0;text-align:start;text-decoration:none;text-decoration-line:none;text-decoration-style:solid;text-decoration-color:#000000;letter-spacing:normal;word-spacing:normal;text-transform:none;writing-mode:lr-tb;direction:ltr;text-orientation:mixed;dominant-baseline:auto;baseline-shift:baseline;text-anchor:start;white-space:normal;shape-padding:0;clip-rule:nonzero;display:inline;overflow:visible;visibility:visible;opacity:1;isolation:auto;mix-blend-mode:normal;color-interpolation:sRGB;color-interpolation-filters:linearRGB;solid-color:#000000;solid-opacity:1;vector-effect:none;fill:#ff0000;fill-opacity:1;fill-rule:evenodd;stroke:none;stroke-width:0.6954729;stroke-linecap:butt;stroke-linejoin:miter;stroke-miterlimit:4;stroke-dasharray:none;stroke-dashoffset:0;stroke-opacity:1;color-rendering:auto;image-rendering:auto;shape-rendering:auto;text-rendering:auto;enable-background:accumulate"
   d="m 134.65903,114.60335 -0.25415,0.65289 21.36122,8.44585 c -0.40813,0.87664 -1.04065,1.64606 -1.88616,2.18716 l 7.8073,0.15333 0.0554,0.0215 0.009,-0.0205 0.97638,0.0192 -6.60921,-5.93609 c 0.24695,0.98986 0.19184,1.99742 -0.0983,2.92246 z"
   id="path856-8"
   inkscape:connector-curvature="0" /><text
   xml:space="preserve"
   style="font-style:normal;font-weight:normal;font-size:40px;line-height:125%;font-family:sans-serif;letter-spacing:0px;word-spacing:0px;fill:#000000;fill-opacity:1;stroke:none;stroke-width:1px;stroke-linecap:butt;stroke-linejoin:miter;stroke-opacity:1"
   x="8.1022587"
   y="36.730301"
   id="text2109"><tspan
     sodipodi:role="line"
     id="tspan2107"
     x="8.1022587"
     y="72.120926" /></text>
<text
   xml:space="preserve"
   style="font-style:normal;font-weight:normal;font-size:16px;line-height:125%;font-family:sans-serif;letter-spacing:0px;word-spacing:0px;fill:#000000;fill-opacity:1;stroke:none;stroke-width:1px;stroke-linecap:butt;stroke-linejoin:miter;stroke-opacity:1"
   x="-1.1574658"
   y="66.824409"
   id="text2237"><tspan
     sodipodi:role="line"
     x="-1.1574658"
     y="66.824409"
     id="tspan2239">$x_{1}$ </tspan><tspan
     sodipodi:role="line"
     x="-1.1574658"
     y="86.824409"
     id="tspan2243">$x_2$</tspan><tspan
     sodipodi:role="line"
     x="-1.1574658"
     y="106.82441"
     id="tspan2247">$\ \vdots$ </tspan><tspan
     sodipodi:role="line"
     x="-1.1574658"
     y="126.82442"
     id="tspan2253">$x_{n}$</tspan></text>
<text
   xml:space="preserve"
   style="font-style:normal;font-weight:normal;font-size:16px;line-height:125%;font-family:sans-serif;letter-spacing:0px;word-spacing:0px;fill:#000000;fill-opacity:1;stroke:none;stroke-width:1px;stroke-linecap:butt;stroke-linejoin:miter;stroke-opacity:1"
   x="30.865747"
   y="18.596674"
   id="text2257"><tspan
     sodipodi:role="line"
     id="tspan2255"
     x="30.865747"
     y="32.752922"></tspan></text>
<path
   style="fill:none;fill-rule:evenodd;stroke:#ff0000;stroke-width:0.7;stroke-linecap:butt;stroke-linejoin:miter;stroke-opacity:1;stroke-miterlimit:4;stroke-dasharray:none;marker-end:url(#marker2496)"
   d="M 5.7873277,51.777353 C 11.574655,27.084755 27.834,45.089 27.834,45.089"
   id="path2486"
   inkscape:connector-curvature="0" /><text
   xml:space="preserve"
   style="font-style:normal;font-weight:normal;font-size:16px;line-height:125%;font-family:sans-serif;letter-spacing:0px;word-spacing:0px;fill:#000000;fill-opacity:1;stroke:none;stroke-width:1px;stroke-linecap:butt;stroke-linejoin:miter;stroke-opacity:1"
   x="368.92252"
   y="41.401634"
   id="text2237-3"><tspan
     sodipodi:role="line"
     x="368.92252"
     y="41.401634"
     id="tspan2239-4">$y_{1}$ </tspan><tspan
     sodipodi:role="line"
     x="368.92252"
     y="61.40163"
     id="tspan2243-4">$y_2$</tspan><tspan
     sodipodi:role="line"
     x="368.92252"
     y="81.401627"
     id="tspan2247-7">$\ \vdots$ </tspan><tspan
     sodipodi:role="line"
     x="368.92252"
     y="101.40163"
     id="tspan2253-8">$y_{m}$</tspan></text>
<path
   style="fill:none;fill-rule:evenodd;stroke:#ff0000;stroke-width:0.7;stroke-linecap:butt;stroke-linejoin:miter;stroke-miterlimit:4;stroke-dasharray:none;stroke-opacity:1;marker-end:url(#marker2639)"
   d="m 329.82942,80.187724 25.84586,7.042927"
   inkscape:connector-curvature="0" /><path
   style="fill:none;fill-rule:evenodd;stroke:#ff0000;stroke-width:0.7;stroke-linecap:butt;stroke-linejoin:miter;stroke-opacity:1;marker-end:url(#marker2821);stroke-miterlimit:4;stroke-dasharray:none"
   d="M 301.71269,49.462422 C 314.44481,4.3212659 363.83,34.029548 363.83,34.029548"
   inkscape:connector-curvature="0"
   id="path2811" /><path
   style="fill:none;fill-rule:evenodd;stroke:#ff0000;stroke-width:0.7;stroke-linecap:butt;stroke-linejoin:miter;stroke-opacity:1;marker-end:url(#marker2899);stroke-miterlimit:4;stroke-dasharray:none"
   d="m 25.464242,84.958032 c 32.409035,8.488081 47.070266,30.094108 47.070266,30.094108"
   id="path2889"
   inkscape:connector-curvature="0" /><path
   inkscape:connector-curvature="0"
   id="path8403"
   d="m 338.0918,110.42773 -0.6875,0.125 c 1.37186,7.54527 3.70881,12.41944 6.47851,15.47657 2.7697,3.05712 5.97295,4.27684 8.97852,4.52148 6.01114,0.48928 11.26367,-2.84961 11.26367,-2.84961 l -0.37305,-0.59179 c 0,0 -5.11398,3.20972 -10.83398,2.74414 -2.86,-0.2328 -5.86504,-1.36712 -8.51758,-4.29493 -2.65254,-2.9278 -4.95229,-7.67117 -6.30859,-15.13086 z"
   style="color:#000000;font-style:normal;font-variant:normal;font-weight:normal;font-stretch:normal;font-size:medium;line-height:normal;font-family:sans-serif;font-variant-ligatures:normal;font-variant-position:normal;font-variant-caps:normal;font-variant-numeric:normal;font-variant-alternates:normal;font-feature-settings:normal;text-indent:0;text-align:start;text-decoration:none;text-decoration-line:none;text-decoration-style:solid;text-decoration-color:#000000;letter-spacing:normal;word-spacing:normal;text-transform:none;writing-mode:lr-tb;direction:ltr;text-orientation:mixed;dominant-baseline:auto;baseline-shift:baseline;text-anchor:start;white-space:normal;shape-padding:0;clip-rule:nonzero;display:inline;overflow:visible;visibility:visible;opacity:1;isolation:auto;mix-blend-mode:normal;color-interpolation:sRGB;color-interpolation-filters:linearRGB;solid-color:#000000;solid-opacity:1;vector-effect:none;fill:#ff0000;fill-opacity:1;fill-rule:evenodd;stroke:none;stroke-width:0.69999999;stroke-linecap:butt;stroke-linejoin:miter;stroke-miterlimit:4;stroke-dasharray:none;stroke-dashoffset:0;stroke-opacity:1;color-rendering:auto;image-rendering:auto;shape-rendering:auto;text-rendering:auto;enable-background:accumulate" /><path
   inkscape:connector-curvature="0"
   d="m 356.2254,127.95718 8.76502,-1.8768 -5.46105,7.10808 c 0.16104,-2.26197 -1.17993,-4.37067 -3.30397,-5.23128 z"
   style="fill:#ff0000;fill-opacity:1;fill-rule:evenodd;stroke:#ff0000;stroke-width:0.48124999;stroke-linejoin:round;stroke-opacity:1"
   id="path8465" /><path
   style="fill:none;fill-rule:evenodd;stroke:#ff0000;stroke-width:0.7;stroke-linecap:butt;stroke-linejoin:miter;stroke-opacity:1;stroke-miterlimit:4;stroke-dasharray:none;marker-end:url(#marker7447)"
   d="m 9.6455462,162.89405 c 1.9291088,25.46424 26.2358858,6.55897 26.2358858,6.55897"
   id="path8511"
   inkscape:connector-curvature="0" /></svg>